<svg width="131" height="131" viewBox="0 0 131 131" fill="none" xmlns="http://www.w3.org/2000/svg">
<path fill-rule="evenodd" clip-rule="evenodd" d="M13.1 124.45H91.7C95.3176 124.45 98.25 121.518 98.25 117.9V13.1C98.25 9.48253 95.3176 6.55 91.7 6.55H13.1C9.48253 6.55 6.55 9.48253 6.55 13.1V117.9C6.55 121.518 9.48253 124.45 13.1 124.45ZM91.7 131H13.1C5.86507 131 0 125.135 0 117.9V13.1C0 5.86507 5.86507 0 13.1 0H91.7C98.9348 0 104.8 5.86507 104.8 13.1V117.9C104.8 125.135 98.9348 131 91.7 131Z" fill="#333333"/>
<path fill-rule="evenodd" clip-rule="evenodd" d="M45.8499 29.475C45.8499 27.6662 47.3161 26.2 49.1249 26.2H88.4249C90.2336 26.2 91.6999 27.6662 91.6999 29.475C91.6999 31.2838 90.2336 32.75 88.4249 32.75H49.1249C47.3161 32.75 45.8499 31.2838 45.8499 29.475Z" fill="#333333"/>
<path fill-rule="evenodd" clip-rule="evenodd" d="M45.8499 42.575C45.8499 40.7662 47.3161 39.3 49.1249 39.3H88.4249C90.2336 39.3 91.6999 40.7662 91.6999 42.575C91.6999 44.3838 90.2336 45.85 88.4249 45.85H49.1249C47.3161 45.85 45.8499 44.3838 45.8499 42.575Z" fill="#333333"/>
<path fill-rule="evenodd" clip-rule="evenodd" d="M45.8499 68.775C45.8499 66.9662 47.3161 65.5 49.1249 65.5H88.4249C90.2336 65.5 91.6999 66.9662 91.6999 68.775C91.6999 70.5838 90.2336 72.05 88.4249 72.05H49.1249C47.3161 72.05 45.8499 70.5838 45.8499 68.775Z" fill="#333333"/>
<path fill-rule="evenodd" clip-rule="evenodd" d="M45.8499 81.875C45.8499 80.0662 47.3161 78.6 49.1249 78.6H88.4249C90.2336 78.6 91.6999 80.0662 91.6999 81.875C91.6999 83.6838 90.2336 85.15 88.4249 85.15H49.1249C47.3161 85.15 45.8499 83.6838 45.8499 81.875Z" fill="#333333"/>
<path fill-rule="evenodd" clip-rule="evenodd" d="M19.6499 72.05V81.875H29.4749V72.05H19.6499ZM16.3749 65.5H32.7499C34.5586 65.5 36.0249 66.9662 36.0249 68.775V85.15C36.0249 86.9588 34.5586 88.425 32.7499 88.425H16.3749C14.5661 88.425 13.0999 86.9588 13.0999 85.15V68.775C13.0999 66.9662 14.5661 65.5 16.3749 65.5Z" fill="#333333"/>
<path fill-rule="evenodd" clip-rule="evenodd" d="M38.3406 27.1593C39.6195 28.4382 39.6195 30.5119 38.3406 31.7908L22.9249 47.2065L14.0591 38.3408C12.7801 37.0619 12.7801 34.9882 14.0591 33.7093C15.3381 32.4304 17.4117 32.4304 18.6906 33.7093L22.9249 37.9435L33.7091 27.1593C34.988 25.8804 37.0617 25.8804 38.3406 27.1593Z" fill="#333333"/>
<path fill-rule="evenodd" clip-rule="evenodd" d="M124.45 65.5H117.9V115.717L121.175 120.083L124.45 115.717V65.5ZM131 117.9L121.175 131L111.35 117.9V58.95H131V117.9Z" fill="#333333"/>
<path fill-rule="evenodd" clip-rule="evenodd" d="M124.45 42.575H117.9V49.125H124.45V42.575ZM117.9 36.025H124.45C128.067 36.025 131 38.9575 131 42.575V55.675H111.35V42.575C111.35 38.9575 114.282 36.025 117.9 36.025Z" fill="#333333"/>
</svg>
