<svg width="143" height="143" viewBox="0 0 143 143" fill="none" xmlns="http://www.w3.org/2000/svg">
<path d="M44.6873 80.4375H80.4373V89.375H44.6873V80.4375Z" fill="black"/>
<path d="M44.6873 58.0938H98.3123V67.0312H44.6873V58.0938Z" fill="black"/>
<path d="M44.6873 102.781H67.031V111.719H44.6873V102.781Z" fill="black"/>
<path d="M111.719 22.3438H98.3125V17.875C98.3125 15.5046 97.3709 13.2313 95.6948 11.5552C94.0187 9.87913 91.7454 8.9375 89.375 8.9375H53.625C51.2546 8.9375 48.9813 9.87913 47.3052 11.5552C45.6291 13.2313 44.6875 15.5046 44.6875 17.875V22.3438H31.2813C28.9109 22.3438 26.6376 23.2854 24.9615 24.9615C23.2854 26.6376 22.3438 28.9109 22.3438 31.2813V125.125C22.3438 127.495 23.2854 129.769 24.9615 131.445C26.6376 133.121 28.9109 134.063 31.2813 134.063H111.719C114.089 134.063 116.362 133.121 118.039 131.445C119.715 129.769 120.656 127.495 120.656 125.125V31.2813C120.656 28.9109 119.715 26.6376 118.039 24.9615C116.362 23.2854 114.089 22.3438 111.719 22.3438ZM53.625 17.875H89.375V35.75H53.625V17.875ZM111.719 125.125H31.2813V31.2813H44.6875V44.6875H98.3125V31.2813H111.719V125.125Z" fill="black"/>
</svg>
